<svg xmlns="http://www.w3.org/2000/svg" height="800" width="1200" viewBox="-39.001155 -16.6 338.01001 99.6"><radialGradient gradientTransform="translate(-1.1923)" r="123.33" cx="138.24" cy="48.093" gradientUnits="userSpaceOnUse" id="a"><stop offset="0" stop-color="#FAAF40"/><stop offset=".0432" stop-color="#F9A538"/><stop offset=".1116" stop-color="#F89D31"/><stop offset=".2269" stop-color="#F89A2F"/><stop offset=".5276" stop-color="#F7922D"/><stop offset="1" stop-color="#F37B28"/></radialGradient><path d="M61.2077 65.2V42.4c0-4.8-2-7.2-5.9-7.2-3.9 0-5.9 2.4-5.9 7.2v22.8h-11.7V42.4c0-4.8-1.9-7.2-5.8-7.2s-5.9 2.4-5.9 7.2v22.8h-11.6V41.1c0-5 1.7-8.7 5.2-11.3 3-2.3 7.2-3.4 12.3-3.4 5.3 0 9.1 1.3 11.6 4 2.1-2.7 6-4 11.7-4 5.2 0 9.3 1.1 12.3 3.4 3.5 2.6 5.2 6.3 5.2 11.3v24.2h-11.5z" fill="url(#a)"/><radialGradient gradientTransform="translate(-1.1923)" r="123.33" cx="138.24" cy="48.093" gradientUnits="userSpaceOnUse" id="b"><stop offset="0" stop-color="#FAAF40"/><stop offset=".0432" stop-color="#F9A538"/><stop offset=".1116" stop-color="#F89D31"/><stop offset=".2269" stop-color="#F89A2F"/><stop offset=".5276" stop-color="#F7922D"/><stop offset="1" stop-color="#F37B28"/></radialGradient><path d="M94.8077 66.2c-5.9 0-10.7-1.9-14.6-5.6-3.8-3.7-5.8-8.5-5.8-14.4s1.9-10.7 5.8-14.4c3.8-3.7 8.7-5.6 14.6-5.6s10.8 1.9 14.6 5.6c3.9 3.7 5.8 8.5 5.8 14.4s-1.9 10.7-5.8 14.4c-3.9 3.7-8.8 5.6-14.6 5.6zm0-30.7c-2.8 0-5 1.1-6.5 3.2s-2.3 4.6-2.3 7.6c0 2.9.7 5.4 2.1 7.4 1.6 2.3 3.8 3.4 6.6 3.4s5-1.1 6.6-3.4c1.5-2 2.2-4.5 2.2-7.4 0-2.9-.7-5.4-2.1-7.4-1.5-2.3-3.8-3.4-6.6-3.4z" fill="url(#b)"/><radialGradient gradientTransform="translate(-1.1923)" r="123.33" cx="138.24" cy="48.093" gradientUnits="userSpaceOnUse" id="c"><stop offset="0" stop-color="#FAAF40"/><stop offset=".0432" stop-color="#F9A538"/><stop offset=".1116" stop-color="#F89D31"/><stop offset=".2269" stop-color="#F89A2F"/><stop offset=".5276" stop-color="#F7922D"/><stop offset="1" stop-color="#F37B28"/></radialGradient><path d="M136.8077 66.2c-5.9 0-10.7-1.9-14.6-5.6-3.8-3.7-5.8-8.5-5.8-14.4s1.9-10.7 5.8-14.4c3.8-3.7 8.7-5.6 14.6-5.6s10.8 1.9 14.6 5.6c3.9 3.7 5.8 8.5 5.8 14.4s-1.9 10.7-5.8 14.4c-3.9 3.7-8.8 5.6-14.6 5.6zm0-30.7c-2.8 0-5 1.1-6.5 3.2s-2.3 4.6-2.3 7.6c0 2.9.7 5.4 2.1 7.4 1.6 2.3 3.8 3.4 6.6 3.4s5-1.1 6.6-3.4c1.5-2 2.2-4.5 2.2-7.4 0-2.9-.7-5.4-2.1-7.4-1.5-2.3-3.8-3.4-6.6-3.4z" fill="url(#c)"/><radialGradient gradientTransform="translate(-1.1923)" r="123.34" cx="138.24" cy="48.093" gradientUnits="userSpaceOnUse" id="d"><stop offset="0" stop-color="#FAAF40"/><stop offset=".0432" stop-color="#F9A538"/><stop offset=".1116" stop-color="#F89D31"/><stop offset=".2269" stop-color="#F89A2F"/><stop offset=".5276" stop-color="#F7922D"/><stop offset="1" stop-color="#F37B28"/></radialGradient><path d="M188.6077 65.1v-3.8c-1 1.4-2.8 2.5-5.3 3.3-2.2.8-4.3 1.1-6.3 1.1-5.5 0-10-1.9-13.3-5.7-3.4-3.8-5-8.5-5-14.1 0-5.5 1.6-10.2 4.9-13.9 3.3-3.7 7.7-5.6 13.1-5.6 6.2 0 10.1 1.7 11.9 5V0h11.3v65.1zm0-21.6c0-2.1-1-4.1-3-6-2-1.9-4-2.9-6.1-2.9-3 0-5.3 1.2-7.1 3.6-1.5 2.1-2.3 4.8-2.3 7.9 0 3 .8 5.6 2.3 7.8 1.7 2.5 4.1 3.7 7.1 3.7 1.8 0 3.7-.8 5.9-2.5 2.1-1.7 3.2-3.4 3.2-5.2z" fill="url(#d)"/><radialGradient gradientTransform="translate(-1.1923)" r="123.33" cx="138.24" cy="48.093" gradientUnits="userSpaceOnUse" id="e"><stop offset="0" stop-color="#FAAF40"/><stop offset=".0432" stop-color="#F9A538"/><stop offset=".1116" stop-color="#F89D31"/><stop offset=".2269" stop-color="#F89A2F"/><stop offset=".5276" stop-color="#F7922D"/><stop offset="1" stop-color="#F37B28"/></radialGradient><path d="M204.0077 65.1V0h11.6v65.1z" fill="url(#e)"/><radialGradient gradientTransform="translate(-1.1923)" r="123.34" cx="138.24" cy="48.093" gradientUnits="userSpaceOnUse" id="f"><stop offset="0" stop-color="#FAAF40"/><stop offset=".0432" stop-color="#F9A538"/><stop offset=".1116" stop-color="#F89D31"/><stop offset=".2269" stop-color="#F89A2F"/><stop offset=".5276" stop-color="#F7922D"/><stop offset="1" stop-color="#F37B28"/></radialGradient><path d="M229.5077 49.7c.5 2.4 1.7 4.4 3.5 6.1 1.9 1.7 3.9 2.6 6.2 2.6 1.6 0 3.3-.4 5.2-1.2 2.3-1 3.4-2.1 3.4-3.4l12.2-.1c-1.7 4.1-4.7 7.3-8.8 9.5-3.9 2.1-8.1 3.2-12.8 3.2-5.9 0-10.9-1.9-14.8-5.5-3.9-3.7-5.9-8.5-5.9-14.5 0-6.2 2-11 5.9-14.7 3.9-3.6 9-5.4 15.2-5.4 6.8 0 12.1 2.2 15.9 6.7 3.5 4.1 5.3 9.7 5.3 16.7zm19-7.2c-.5-2.5-1.5-4.5-3.1-6.1-1.8-1.7-3.9-2.6-6.2-2.6-2.4 0-4.4.8-6.1 2.5-1.6 1.7-2.7 3.7-3.3 6.2z" fill="url(#f)"/><path d="M15.5077 32.2l-1.2 6c11 3.7 21.4.1 26.9-9.5-8.1-5.6-15.6.1-25.7 3.5" fill="#58595B"/><linearGradient gradientTransform="translate(-1.1923)" x1="15.588" y1="31.877" x2="41.849" gradientUnits="userSpaceOnUse" y2="31.877" id="g"><stop offset="0" stop-color="#929497"/><stop offset=".1245" stop-color="#757578"/><stop offset=".2792" stop-color="#575658"/><stop offset=".4403" stop-color="#403E3F"/><stop offset=".6085" stop-color="#302D2E"/><stop offset=".7884" stop-color="#262223"/><stop offset="1" stop-color="#231F20"/></linearGradient><path d="M15.5077 30.7c-.4 2.3-.7 4.5-1.1 6.8 10.5 3.6 20.8.5 26.3-8.9-7-8.1-14.8-1.4-25.2 2.1" fill="url(#g)"/><linearGradient gradientTransform="translate(-1.1923)" x1="20.619" y1="23.111" x2="31.522" gradientUnits="userSpaceOnUse" y2="38.683" id="h"><stop offset="0" stop-color="#231F20"/><stop offset="1" stop-opacity="0" stop-color="#231F20"/></linearGradient><path d="M28.0077 33.4c-4.8-1-10 1.5-13.6 4.1-2.3-16.8 8.1-16.4 21.7-12.2-.9 4.1-2.4 9.6-5 12.9-.1-2.2-1.1-3.7-3.1-4.8" fill="url(#h)"/><linearGradient gradientTransform="translate(-1.1923)" x1="1.167" y1="23.588" x2="49.166" gradientUnits="userSpaceOnUse" y2="23.588" id="i"><stop offset="0" stop-color="#929497"/><stop offset=".1245" stop-color="#757578"/><stop offset=".2792" stop-color="#575658"/><stop offset=".4403" stop-color="#403E3F"/><stop offset=".6085" stop-color="#302D2E"/><stop offset=".7884" stop-color="#262223"/><stop offset="1" stop-color="#231F20"/></linearGradient><path d="M.0077 30.7c17.6-10.6 27.5-12.6 48-14.7-23.8 18.8-24.4 14.7-48 14.7" fill="url(#i)"/><path fill="#383738" stroke="#4A4A4C" stroke-width=".5" d="M48.0077 16.1l-18.9 13.7"/><path d="M25.5077 23.4c.2 2.2-.3-2.1 0 0" fill="#231F20" opacity=".23"/><path fill="#fff" stroke="#A8ABAD" stroke-width=".5" d="M.0077 30.7l29.1-.9"/><path fill="none" stroke-width=".5" stroke="#F16922" d="M23.7077 23.6c-5 1.4-21.4 5-21.6 7.1-.5 3.9-.1 10.1-.1 10.1"/><path d="M3.5077 55.7c-1.8-4.5-4-9.5-1.4-15.7 1.7 5.8 1.4 10.2 1.4 15.7" fill="#F16922"/><ellipse fill="#6D6E70" cx="13.8611" cy="29.6679" ry=".4" transform="rotate(-19.61)" rx=".8"/></svg>